<mxfile host="Electron" agent="Mozilla/5.0 (X11; Linux x86_64) AppleWebKit/537.36 (KHTML, like Gecko) draw.io/28.0.6 Chrome/138.0.7204.100 Electron/37.2.3 Safari/537.36" version="28.0.6">
  <diagram name="Page-1" id="-5eqhDs4YWSbSq_m2M7s">
    <mxGraphModel dx="1362" dy="843" grid="1" gridSize="10" guides="1" tooltips="1" connect="1" arrows="1" fold="1" page="1" pageScale="1" pageWidth="850" pageHeight="1100" math="0" shadow="0">
      <root>
        <mxCell id="0" />
        <mxCell id="1" parent="0" />
        <mxCell id="EN1QMi2Ifx7Gt7xTXo-O-1" value="EMAIL" style="whiteSpace=wrap;html=1;aspect=fixed;" vertex="1" parent="1">
          <mxGeometry x="150" y="510" width="100" height="100" as="geometry" />
        </mxCell>
        <mxCell id="EN1QMi2Ifx7Gt7xTXo-O-2" value="Signalbus API Service" style="whiteSpace=wrap;html=1;aspect=fixed;" vertex="1" parent="1">
          <mxGeometry x="360" y="230" width="100" height="100" as="geometry" />
        </mxCell>
        <mxCell id="EN1QMi2Ifx7Gt7xTXo-O-3" value="PUSH" style="whiteSpace=wrap;html=1;aspect=fixed;" vertex="1" parent="1">
          <mxGeometry x="580" y="510" width="100" height="100" as="geometry" />
        </mxCell>
        <mxCell id="EN1QMi2Ifx7Gt7xTXo-O-4" value="SMS" style="whiteSpace=wrap;html=1;aspect=fixed;" vertex="1" parent="1">
          <mxGeometry x="370" y="510" width="100" height="100" as="geometry" />
        </mxCell>
        <mxCell id="EN1QMi2Ifx7Gt7xTXo-O-12" style="edgeStyle=orthogonalEdgeStyle;rounded=0;orthogonalLoop=1;jettySize=auto;html=1;" edge="1" parent="1" source="EN1QMi2Ifx7Gt7xTXo-O-5" target="EN1QMi2Ifx7Gt7xTXo-O-4">
          <mxGeometry relative="1" as="geometry" />
        </mxCell>
        <mxCell id="EN1QMi2Ifx7Gt7xTXo-O-13" style="edgeStyle=orthogonalEdgeStyle;rounded=0;orthogonalLoop=1;jettySize=auto;html=1;entryX=0.5;entryY=0;entryDx=0;entryDy=0;" edge="1" parent="1" source="EN1QMi2Ifx7Gt7xTXo-O-5" target="EN1QMi2Ifx7Gt7xTXo-O-3">
          <mxGeometry relative="1" as="geometry" />
        </mxCell>
        <mxCell id="EN1QMi2Ifx7Gt7xTXo-O-5" value="KAFKA" style="rounded=1;whiteSpace=wrap;html=1;" vertex="1" parent="1">
          <mxGeometry x="150" y="390" width="540" height="60" as="geometry" />
        </mxCell>
        <mxCell id="EN1QMi2Ifx7Gt7xTXo-O-8" value="Client" style="rounded=0;whiteSpace=wrap;html=1;" vertex="1" parent="1">
          <mxGeometry x="280" y="140" width="280" height="60" as="geometry" />
        </mxCell>
        <mxCell id="EN1QMi2Ifx7Gt7xTXo-O-9" style="edgeStyle=orthogonalEdgeStyle;rounded=0;orthogonalLoop=1;jettySize=auto;html=1;exitX=0.5;exitY=1;exitDx=0;exitDy=0;entryX=0.6;entryY=-0.03;entryDx=0;entryDy=0;entryPerimeter=0;" edge="1" parent="1" source="EN1QMi2Ifx7Gt7xTXo-O-8" target="EN1QMi2Ifx7Gt7xTXo-O-2">
          <mxGeometry relative="1" as="geometry" />
        </mxCell>
        <mxCell id="EN1QMi2Ifx7Gt7xTXo-O-10" style="edgeStyle=orthogonalEdgeStyle;rounded=0;orthogonalLoop=1;jettySize=auto;html=1;exitX=0.5;exitY=1;exitDx=0;exitDy=0;entryX=0.481;entryY=0.083;entryDx=0;entryDy=0;entryPerimeter=0;" edge="1" parent="1" source="EN1QMi2Ifx7Gt7xTXo-O-2" target="EN1QMi2Ifx7Gt7xTXo-O-5">
          <mxGeometry relative="1" as="geometry" />
        </mxCell>
        <mxCell id="EN1QMi2Ifx7Gt7xTXo-O-11" style="edgeStyle=orthogonalEdgeStyle;rounded=0;orthogonalLoop=1;jettySize=auto;html=1;entryX=0.59;entryY=-0.01;entryDx=0;entryDy=0;entryPerimeter=0;" edge="1" parent="1" source="EN1QMi2Ifx7Gt7xTXo-O-5" target="EN1QMi2Ifx7Gt7xTXo-O-1">
          <mxGeometry relative="1" as="geometry" />
        </mxCell>
      </root>
    </mxGraphModel>
  </diagram>
</mxfile>
